<svg preserveAspectRatio="none" overflow="visible" style="display: block;" width="160.327" height="141.297" viewBox="0 0 160.327 141.297" fill="none" xmlns="http://www.w3.org/2000/svg">
<g id="Group 7">
<circle id="Ellipse 1" cx="100.567" cy="97.7599" r="43.5369" fill="url(#paint0_linear_0_7)"/>
<path id="Vector 17" d="M7.60179 98.9162C35.2012 67.4356 96.5129 22.8227 152.725 73.3469" stroke="black" stroke-width="15.2034" stroke-linecap="round"/>
<path id="Star 5" d="M82.3622 59.1658L88.2029 74.9501L103.987 80.7908L88.2029 86.6315L82.3622 102.416L76.5215 86.6315L60.7373 80.7908L76.5215 74.9501L82.3622 59.1658Z" fill="#D9D9D9"/>
<path id="Vector 19" d="M8.83727 75.8478C10.2974 74.8484 11.6828 73.9139 13.1391 72.9219C26.0096 64.1893 38.788 55.8011 52.4241 49.2523C66.0272 42.6388 80.5466 37.8031 95.333 32.9743C97.0085 32.4311 98.5971 31.9067 100.28 31.3622C98.5168 31.5027 96.8476 31.6442 95.0904 31.8258C79.6205 33.3887 64.0359 36.7408 49.735 43.6896C35.4027 50.5747 23.0899 60.7492 12.3798 72.0265C11.1589 73.3051 10.0268 74.5378 8.83727 75.8478Z" fill="#DA9D58"/>
<path id="Vector 20" d="M7.60177 23.948C9.46351 23.7391 11.3215 23.5163 13.1756 23.2796C29.863 21.1493 46.2432 17.8923 62.3161 13.5088C69.3774 11.583 76.3796 9.4397 83.3223 7.07897L81.5565 7.11746C90.7936 8.61903 100.112 9.76259 109.511 10.5481C111.374 10.7038 113.24 10.8454 115.109 10.973C113.367 10.283 111.622 9.60708 109.874 8.94522C101.053 5.60547 92.151 2.62373 83.168 0L81.4022 0.0384929C74.2222 1.52942 67.1015 3.23781 60.0401 5.16364C43.9672 9.54716 28.2016 15.0573 12.7432 21.694C11.0256 22.4314 9.31178 23.1827 7.60177 23.948Z" fill="black"/>
</g>
<defs>
<linearGradient id="paint0_linear_0_7" x1="100.567" y1="54.223" x2="100.567" y2="141.297" gradientUnits="userSpaceOnUse">
<stop offset="0.649038"/>
<stop offset="1" stop-color="#7D3000"/>
</linearGradient>
</defs>
</svg>
